<svg xmlns="http://www.w3.org/2000/svg" viewBox="0 0 773 198" role="img" aria-label="Клинок">
  <path fill="#000000" d="M554.369 136.031 C554.369 143.532 555.962 150.193 559.149 156.015 C562.336 161.837 566.719 166.427 572.296 169.786 C577.873 173.145 584.361 174.824 591.759 174.824 C599.158 174.824 605.646 173.145 611.223 169.786 C616.8 166.427 621.125 161.837 624.198 156.015 C627.385 150.193 628.979 143.532 628.979 136.031 C628.979 128.529 627.442 121.868 624.369 116.046 C621.296 110.224 616.971 105.634 611.394 102.275 C605.816 98.916 599.272 97.237 591.759 97.237 C584.361 97.237 577.873 98.916 572.296 102.275 C566.719 105.634 562.336 110.224 559.149 116.046 C555.962 121.868 554.369 128.529 554.369 136.031 Z M528.588 136.031 C528.588 127.074 530.182 118.901 533.369 111.511 C536.556 104.01 540.995 97.517 546.686 92.031 C552.377 86.545 559.036 82.346 566.662 79.435 C574.401 76.412 582.767 74.901 591.759 74.901 C600.865 74.901 609.231 76.412 616.857 79.435 C624.483 82.346 631.142 86.545 636.833 92.031 C642.638 97.517 647.077 104.01 650.15 111.511 C653.337 118.901 654.93 127.074 654.93 136.031 C654.93 144.875 653.337 153.104 650.15 160.718 C647.077 168.219 642.695 174.768 637.003 180.366 C631.426 185.964 624.768 190.331 617.028 193.466 C609.402 196.489 600.979 198 591.759 198 C582.54 198 574.06 196.489 566.32 193.466 C558.694 190.331 552.036 185.964 546.344 180.366 C540.653 174.768 536.271 168.219 533.198 160.718 C530.125 153.104 528.588 144.875 528.588 136.031 Z M673.804 77.252 L698.902 77.252 L698.902 194.809 L673.804 194.809 L673.804 77.252 Z M741.414 77.252 L770.439 77.252 L720.927 132.336 L773 194.809 L743.292 194.809 L691.731 133.008 L741.414 77.252 Z"/>
  <path fill="#000000" d="M0 77.967 L25.156 77.967 L25.156 194.267 L0 194.267 L0 77.967 Z M67.767 77.967 L96.858 77.967 L47.231 132.462 L99.425 194.267 L69.649 194.267 L17.968 133.126 L67.767 77.967 Z M222.631 77.967 L222.631 194.267 L197.818 194.267 L197.818 99.399 L154.009 99.399 L154.009 147.913 C154.009 157.66 152.526 166.023 149.56 173.001 C146.708 179.868 142.202 185.129 136.041 188.784 C129.88 192.439 121.951 194.267 112.254 194.267 L112.254 174.164 C114.992 174.164 117.445 173.554 119.613 172.336 C121.78 171.118 123.606 169.345 125.089 167.019 C126.572 164.693 127.713 161.924 128.511 158.712 C129.31 155.5 129.709 151.956 129.709 148.079 L129.709 77.967 L222.631 77.967 Z M398.454 143.095 L398.454 121.662 L454.413 121.662 L454.413 143.095 L398.454 143.095 Z M454.413 77.967 L478.884 77.967 L478.884 194.267 L454.413 194.267 L454.413 77.967 Z M373.983 77.967 L398.454 77.967 L398.454 194.267 L373.983 194.267 L373.983 77.967 Z M245.717 194.267 L245.717 77.967 L268.888 77.967 L268.888 154.519 L331.534 77.967 L354.705 77.967 L354.705 194.267 L331.534 194.267 L331.534 117.715 L268.888 194.267 L245.717 194.267 Z"/>
  <path fill="#000000" d="M500.764 92.91 L500.764 59.214 L466.995 59.214 L466.995 34.351 L500.764 34.351 L500.764 0 L523.713 0 L523.713 34.351 L556.827 34.351 L556.827 59.214 L523.713 59.214 L523.713 92.91 L500.764 92.91 Z"/>
</svg>
